<svg width="36" height="36" viewBox="0 0 36 36" fill="none" xmlns="http://www.w3.org/2000/svg">
<path fill-rule="evenodd" clip-rule="evenodd" d="M18 36C27.9411 36 36 27.9411 36 18C36 8.05887 27.9411 0 18 0C8.05887 0 0 8.05887 0 18C0 27.9411 8.05887 36 18 36ZM23.4693 10.7063C23.6387 10.6361 23.8203 10.6 24.0037 10.6C24.187 10.6 24.3686 10.6361 24.5381 10.7063C24.7075 10.7765 24.8614 10.8793 24.9911 11.009C25.1208 11.1387 25.2236 11.2926 25.2938 11.462C25.364 11.6315 25.4001 11.8131 25.4001 11.9964C25.4001 12.1798 25.364 12.3614 25.2938 12.5308C25.2236 12.7003 25.1208 12.8542 24.9911 12.9839L13.7407 24.2342L11.0253 24.9748L11.7659 22.2594L23.0162 11.009C23.1459 10.8793 23.2998 10.7765 23.4693 10.7063ZM24.0037 8.60001C23.5576 8.60001 23.116 8.68786 22.7039 8.85854C22.2918 9.02923 21.9174 9.27941 21.602 9.5948L10.1639 21.0329C10.0408 21.156 9.95203 21.309 9.90624 21.4769L8.63533 26.1369C8.54091 26.4831 8.63924 26.8534 8.89299 27.1071C9.14674 27.3609 9.517 27.4592 9.86322 27.3648L14.5232 26.0939C14.6911 26.0481 14.8441 25.9593 14.9672 25.8362L26.4053 14.3981C26.7207 14.0827 26.9709 13.7083 27.1416 13.2962C27.3122 12.8841 27.4001 12.4425 27.4001 11.9964C27.4001 11.5504 27.3122 11.1088 27.1416 10.6967C26.9709 10.2846 26.7207 9.91019 26.4053 9.5948C26.0899 9.27941 25.7155 9.02923 25.3034 8.85854C24.8913 8.68786 24.4497 8.60001 24.0037 8.60001Z" fill="white" fill-opacity="0.5"/>
</svg>
