<svg width="333" height="271" viewBox="0 0 333 271" fill="none" xmlns="http://www.w3.org/2000/svg">
<path d="M329.448 98.7255C327.889 96.7158 325.89 95.0906 323.604 93.9752C321.318 92.8597 318.807 92.2837 316.263 92.2916H270.122V55.7594C270.117 51.4887 268.418 47.3943 265.398 44.3745C262.379 41.3546 258.284 39.656 254.013 39.6512H159.013L146.626 9.91126C145.408 6.97276 143.344 4.46221 140.697 2.69777C138.05 0.93332 134.939 -0.00558981 131.757 2.50367e-05H16.1082C11.8376 0.00500558 7.74327 1.70371 4.72348 4.72351C1.70369 7.7433 0.00498055 11.8376 0 16.1082V270.124H293.23L332.491 113.077C333.116 110.611 333.166 108.035 332.638 105.547C332.111 103.059 331.019 100.725 329.448 98.7255ZM22.3038 247.82V22.3038H127.627L144.146 61.955H247.82V92.2916H84.7452C81.0132 92.2868 77.387 93.5319 74.4452 95.8285C71.5034 98.125 69.4154 101.341 68.5144 104.962L32.8026 247.82H22.3038ZM275.816 247.82H55.7928L89.0986 114.595H309.122L275.816 247.82Z" fill="white"/>
</svg>
