<svg width="88" height="88" viewBox="0 0 88 88" fill="none" xmlns="http://www.w3.org/2000/svg">
<path d="M76.9045 46.8967C76.3278 53.1381 73.9854 59.0862 70.1514 64.0449C66.3175 69.0036 61.1507 72.7679 55.2555 74.8973C49.3602 77.0267 42.9805 77.4331 36.8627 76.069C30.7449 74.7049 25.1422 71.6267 20.71 67.1945C16.2779 62.7624 13.1997 57.1596 11.8355 51.0418C10.4714 44.9241 10.8778 38.5443 13.0072 32.6491C15.1366 26.7539 18.9009 21.587 23.8597 17.7531C28.8184 13.9192 34.7665 11.5768 41.0079 11C37.3537 15.9436 35.5953 22.0346 36.0525 28.1652C36.5097 34.2957 39.152 40.0585 43.499 44.4055C47.846 48.7525 53.6088 51.3949 59.7394 51.852C65.8699 52.3092 71.9609 50.5508 76.9045 46.8967Z" fill="url(#paint0_linear_108_96)"/>
<path d="M70.2023 42.6326C69.7953 47.0367 68.1424 51.2337 65.4372 54.7327C62.7319 58.2317 59.0861 60.8878 54.9263 62.3904C50.7665 63.8929 46.2649 64.1797 41.9481 63.2171C37.6313 62.2546 33.6779 60.0825 30.5505 56.9551C27.4231 53.8277 25.251 49.8743 24.2885 45.5575C23.3259 41.2407 23.6127 36.7391 25.1152 32.5793C26.6178 28.4195 29.2739 24.7737 32.7729 22.0684C36.2719 19.3632 40.4689 17.7103 44.873 17.3033C42.2945 20.7917 41.0538 25.0896 41.3764 29.4154C41.699 33.7412 43.5635 37.8075 46.6308 40.8748C49.6981 43.9421 53.7644 45.8066 58.0902 46.1292C62.416 46.4518 66.7139 45.2111 70.2023 42.6326Z" fill="url(#paint1_linear_108_96)"/>
<defs>
<linearGradient id="paint0_linear_108_96" x1="64.2122" y1="25.1174" x2="16.1151" y2="72.502" gradientUnits="userSpaceOnUse">
<stop stop-color="#1A479E"/>
<stop offset="1" stop-color="#BA2424"/>
</linearGradient>
<linearGradient id="paint1_linear_108_96" x1="47.0283" y1="43.4656" x2="21.0203" y2="67.336" gradientUnits="userSpaceOnUse">
<stop stop-color="white"/>
<stop offset="1" stop-color="#1F62E5"/>
</linearGradient>
</defs>
</svg>
