<svg width="135" height="135" viewBox="0 0 135 135" fill="none" xmlns="http://www.w3.org/2000/svg">
<path d="M117.979 71.9437C117.094 81.5186 113.5 90.6435 107.619 98.2507C101.737 105.858 93.8107 111.633 84.7669 114.899C75.7231 118.166 65.936 118.789 56.5508 116.697C47.1655 114.604 38.5704 109.882 31.7711 103.082C24.9718 96.2832 20.2495 87.688 18.1568 78.3028C16.0641 68.9176 16.6876 59.1305 19.9543 50.0867C23.221 41.0429 28.9957 33.1164 36.6029 27.2349C44.21 21.3533 53.3349 17.7598 62.9098 16.875C57.304 24.459 54.6065 33.8032 55.3078 43.208C56.0091 52.6128 60.0628 61.4534 66.7315 68.1221C73.4001 74.7908 82.2408 78.8444 91.6456 79.5458C101.05 80.2471 110.395 77.5495 117.979 71.9437Z" stroke="white" stroke-width="2" stroke-linecap="round" stroke-linejoin="round"/>
<path d="M107.696 65.4024C107.072 72.1586 104.536 78.5973 100.386 83.965C96.2362 89.3327 90.6432 93.4075 84.2617 95.7125C77.8803 98.0176 70.9743 98.4575 64.3519 96.9809C57.7296 95.5042 51.6647 92.1721 46.867 87.3744C42.0693 82.5767 38.7372 76.5118 37.2605 69.8894C35.7839 63.2671 36.2238 56.3611 38.5289 49.9797C40.8339 43.5982 44.9087 38.0052 50.2764 33.855C55.6441 29.7049 62.0828 27.1693 68.839 26.545C64.8835 31.8964 62.98 38.4897 63.4749 45.1259C63.9698 51.7621 66.8301 58.0003 71.5356 62.7058C76.2411 67.4113 82.4793 70.2716 89.1155 70.7665C95.7516 71.2614 102.345 69.3579 107.696 65.4024V65.4024Z" fill="white"/>
</svg>
